# xmcd
#
# Track frame offsets: 
#        182
#        12532
#        22727
#        36260
#        50187
#        60827
#        73882
#        85575
#        94397
#        106210
#        121495
#        134932
#        147155
#        154795
#        164657
#        177357
#        188670
#        199435
#        210405
#        220975
#        234832
#        246487
#        259687
#        271905
#        283475
#
# Disc length: 3918 seconds
#
# Revision: 15
# Processed by: cddbd v1.5.2PL0 Copyright (c) Steve Scherf et al.
# Submitted via: ExactAudioCopy v1.3
#
DISCID=810f4c19
DTITLE=Varios - C-064 25 Country Classics Vol.1  
DYEAR=1991
DGENRE=Country
TTITLE0=Kenny Rogers - Reuben James
TTITLE1=Frankie Laine - I Believe
TTITLE2=Willie Nelson - You'll Always Have Someone
TTITLE3=Freddy Fender - Wasted Days And Wasted Nights
TTITLE4=Waylon Jennings - Burning Memories
TTITLE5=Donna Fargo - Daddy
TTITLE6=George Jones - Your Tender Years
TTITLE7=Patsy Cline - Come On In
TTITLE8=Roy Drusky - Take These Chains From My Heart
TTITLE9=Barbara Fairchild - Slipping Away
TTITLE10=Kenny Rogers - Shine On Ruby Mountain
TTITLE11=Stonewall Jackson - Old Blue
TTITLE12=George Jones - Ragged But Right
TTITLE13=Donna Fargo - Sticks And Stones
TTITLE14=Frankie Laine - High Noon
TTITLE15=Roy Drusky - The Last Letter
TTITLE16=Freddy Fender - Wild Side Of Life
TTITLE17=Stonewall Jackson - Should I Go Home
TTITLE18=Waylon Jennings - Dream Baby
TTITLE19=Barbara Fairchild - Crazy Love
TTITLE20=Patsy Cline - Cry Not For Me
TTITLE21=Kenny Rogers - Ruby Don't Take Your Love To Town
TTITLE22=Roy Drusky - Luckinback Texas
TTITLE23=Donna Fargo - Wishful Thinking 
TTITLE24=Waylon Jennings - Money
EXTD=
EXTT0=
EXTT1=
EXTT2=
EXTT3=
EXTT4=
EXTT5=
EXTT6=
EXTT7=
EXTT8=
EXTT9=
EXTT10=
EXTT11=
EXTT12=
EXTT13=
EXTT14=
EXTT15=
EXTT16=
EXTT17=
EXTT18=
EXTT19=
EXTT20=
EXTT21=
EXTT22=
EXTT23=
EXTT24=
PLAYORDER=
